<svg id="Layer_1" data-name="Layer 1" xmlns="http://www.w3.org/2000/svg" viewBox="0 0 350 350"><defs><style>.cls-1{fill:#fff;}.cls-2{fill:#555454;}.cls-3{fill:#6b882b;}.cls-4{fill:#a4c843;}</style></defs><title>design</title><rect class="cls-1" x="22.99" y="197.94" width="224" height="64" transform="translate(-0.28 0.16) rotate(-0.07)"/><path class="cls-2" d="M20,265.08l-.09-70,230-.28.09,70Zm5.92-64,.07,58,218-.26-.07-58Z"/><rect class="cls-1" x="22.99" y="198.06" width="32" height="64" transform="translate(-0.28 0.05) rotate(-0.07)"/><path class="cls-2" d="M20,265.08l-.09-70,38,0L58,265Zm5.92-64,.07,58,26,0L52,201Z"/><rect class="cls-1" x="54.99" y="198.02" width="32" height="64" transform="translate(-0.28 0.09) rotate(-0.07)"/><path class="cls-2" d="M52,265l-.09-70,38,0L90,265ZM58,201,58,259l26,0L84,201Z"/><rect class="cls-1" x="86.99" y="197.98" width="32" height="64" transform="translate(-0.28 0.12) rotate(-0.07)"/><path class="cls-2" d="M84,265l-.09-70,38,0,.09,70ZM90,201,90,259l26,0L116,201Z"/><rect class="cls-1" x="118.99" y="197.94" width="32" height="64" transform="translate(-0.28 0.16) rotate(-0.07)"/><path class="cls-2" d="M116,265l-.09-70,38,0,.09,70ZM122,201l.07,58,26,0-.07-58Z"/><rect class="cls-1" x="150.99" y="197.9" width="32" height="64" transform="translate(-0.28 0.2) rotate(-0.07)"/><path class="cls-2" d="M148,264.93l-.09-70,38-.05.09,70Zm5.92-64,.07,58,26,0-.07-58Z"/><path class="cls-1" d="M215.14,221.34a8.5,8.5,0,1,1-8.49,8.51A8.5,8.5,0,0,1,215.14,221.34Z"/><path class="cls-2" d="M215.17,241.34h0A11.47,11.47,0,1,1,223.3,238,11.52,11.52,0,0,1,215.15,241.34Zm0-17a5.5,5.5,0,1,0,0,11v0a5.5,5.5,0,0,0,0-11Z"/><rect class="cls-1" x="113.58" y="78.01" width="64" height="224" transform="translate(-91.65 221.94) rotate(-60.21)"/><path class="cls-2" d="M228,277.53,28.39,163.25,63.17,102.5l199.6,114.28ZM36.58,161,225.77,269.34,254.58,219,65.4,110.69Z"/><rect class="cls-1" x="30.27" y="126.32" width="64" height="32" transform="translate(-92.18 125.64) rotate(-60.21)"/><path class="cls-2" d="M61.37,182.13l-33-18.88L63.17,102.5l33,18.88ZM36.58,161l22.56,12.92L88,123.61,65.4,110.69Z"/><rect class="cls-1" x="58.04" y="142.21" width="64" height="32" transform="translate(-92 157.74) rotate(-60.21)"/><path class="cls-2" d="M89.14,198l-33-18.88L90.94,118.4l33,18.88ZM64.35,176.92l22.56,12.92,28.82-50.33L93.17,126.59Z"/><rect class="cls-1" x="85.81" y="158.11" width="64" height="32" transform="translate(-91.83 189.84) rotate(-60.21)"/><path class="cls-2" d="M116.91,213.93l-33-18.88,34.78-60.75,33,18.88ZM92.12,192.82l22.56,12.92,28.82-50.33-22.56-12.92Z"/><rect class="cls-1" x="113.58" y="174.01" width="64" height="32" transform="translate(-91.65 221.94) rotate(-60.21)"/><path class="cls-2" d="M144.68,229.83,111.7,211l34.78-60.75,33,18.88Zm-24.79-21.11,22.56,12.92,28.82-50.33-22.56-12.92Z"/><rect class="cls-1" x="141.35" y="189.91" width="64" height="32" transform="translate(-91.48 254.04) rotate(-60.21)"/><path class="cls-2" d="M172.45,245.73l-33-18.88,34.78-60.75,33,18.88Zm-24.79-21.11,22.56,12.92L199,187.2l-22.56-12.91Z"/><path class="cls-1" d="M219.38,222.47a8.5,8.5,0,1,1-11.61,3.15A8.5,8.5,0,0,1,219.38,222.47Z"/><path class="cls-2" d="M215.14,241.35a11.51,11.51,0,1,1,10-5.79A11.55,11.55,0,0,1,215.14,241.35Zm0-17a5.51,5.51,0,1,0,2.73.73A5.52,5.52,0,0,0,215.16,224.34Z"/><rect class="cls-1" x="141.71" y="49.22" width="64" height="224" transform="translate(-58.34 113.02) rotate(-31.13)"/><path class="cls-2" d="M203.2,277.76,84.29,80.88l59.92-36.19L263.12,241.57ZM92.53,82.91,205.24,269.52l49.64-30L142.18,52.93Z"/><rect class="cls-1" x="92.07" y="63.05" width="64" height="32" transform="matrix(0.86, -0.52, 0.52, 0.86, -23, 75.53)"/><path class="cls-2" d="M103.94,113.41,84.29,80.88l59.92-36.19,19.65,32.53ZM92.53,82.91,106,105.17l49.65-30L142.18,52.93Z"/><rect class="cls-1" x="108.62" y="90.44" width="64" height="32" transform="translate(-34.78 88.03) rotate(-31.13)"/><path class="cls-2" d="M120.48,140.8l-19.64-32.53,59.91-36.19,19.65,32.53Zm-11.41-30.49,13.44,22.25,49.65-30L158.72,80.32Z"/><rect class="cls-1" x="125.16" y="117.83" width="64" height="32" transform="translate(-46.56 100.53) rotate(-31.13)"/><path class="cls-2" d="M137,168.19l-19.65-32.53L177.3,99.47,196.94,132ZM125.62,137.7,139.06,160l49.65-30-13.45-22.26Z"/><rect class="cls-1" x="141.71" y="145.22" width="64" height="32" transform="translate(-58.34 113.02) rotate(-31.13)"/><path class="cls-2" d="M153.57,195.58l-19.65-32.53,59.92-36.19,19.65,32.53Zm-11.41-30.49,13.44,22.25,49.65-30L191.81,135.1Z"/><rect class="cls-1" x="158.25" y="172.61" width="64" height="32" transform="translate(-70.12 125.53) rotate(-31.13)"/><path class="cls-2" d="M170.11,223l-19.64-32.52,59.92-36.19L230,186.78ZM158.7,192.48l13.45,22.26,49.64-30-13.44-22.26Z"/><path class="cls-1" d="M222.43,225.45a8.5,8.5,0,1,1-11.67-2.88A8.51,8.51,0,0,1,222.43,225.45Z"/><path class="cls-2" d="M215.16,241.35a11.51,11.51,0,1,1,5.94-1.66A11.56,11.56,0,0,1,215.16,241.35Zm0-17a5.5,5.5,0,1,0,4.72,2.66A5.48,5.48,0,0,0,215.14,224.34Z"/><rect class="cls-1" x="183.15" y="37.68" width="64" height="224"/><path class="cls-2" d="M250.15,264.68h-70v-230h70Zm-64-6h58v-218h-58Z"/><rect class="cls-3" x="183.15" y="37.68" width="64" height="32"/><path class="cls-2" d="M250.15,72.68h-70v-38h70Zm-64-6h58v-26h-58Z"/><rect class="cls-3" x="183.15" y="69.68" width="64" height="32"/><path class="cls-2" d="M250.15,104.68h-70v-38h70Zm-64-6h58v-26h-58Z"/><rect class="cls-3" x="183.15" y="101.68" width="64" height="32"/><path class="cls-2" d="M250.15,136.68h-70v-38h70Zm-64-6h58v-26h-58Z"/><rect class="cls-3" x="183.15" y="133.68" width="64" height="32"/><path class="cls-2" d="M250.15,168.68h-70v-38h70Zm-64-6h58v-26h-58Z"/><rect class="cls-3" x="183.15" y="165.68" width="64" height="32"/><path class="cls-2" d="M250.15,200.68h-70v-38h70Zm-64-6h58v-26h-58Z"/><circle class="cls-1" cx="215.15" cy="229.84" r="8.5"/><path class="cls-2" d="M215.15,241.34a11.5,11.5,0,1,1,11.5-11.5A11.51,11.51,0,0,1,215.15,241.34Zm0-17a5.5,5.5,0,1,0,5.5,5.5A5.51,5.51,0,0,0,215.15,224.34Z"/><rect class="cls-1" x="144.43" y="129.22" width="224" height="64" transform="translate(-14.15 297.37) rotate(-58.87)"/><path class="cls-2" d="M226.93,277.76,167,241.57,285.92,44.69l59.92,36.19Zm-51.68-38.23,49.65,30L337.6,82.91,288,52.93Z"/><rect class="cls-4" x="290.06" y="47.05" width="32" height="64" transform="translate(80.16 300.16) rotate(-58.87)"/><path class="cls-2" d="M326.19,113.41,266.28,77.22l19.64-32.53,59.92,36.19ZM274.51,75.18l49.65,30L337.6,82.91,288,52.93Z"/><rect class="cls-4" x="273.51" y="74.44" width="32" height="64" transform="translate(48.72 299.23) rotate(-58.87)"/><path class="cls-2" d="M309.65,140.8l-59.92-36.19,19.65-32.53,59.92,36.19ZM258,102.57l49.65,30,13.44-22.25-49.65-30Z"/><rect class="cls-4" x="256.97" y="101.83" width="32" height="64" transform="translate(17.28 298.29) rotate(-58.87)"/><path class="cls-2" d="M293.11,168.19,233.19,132l19.64-32.53,59.92,36.19ZM241.43,130l49.64,30,13.45-22.25-49.65-30Z"/><rect class="cls-4" x="240.43" y="129.22" width="32" height="64" transform="translate(-14.15 297.37) rotate(-58.87)"/><path class="cls-2" d="M276.56,195.58l-59.92-36.19,19.65-32.53,59.92,36.19Zm-51.68-38.22,49.65,30L288,165.09l-49.64-30Z"/><rect class="cls-4" x="223.88" y="156.61" width="32" height="64" transform="translate(-45.59 296.43) rotate(-58.87)"/><path class="cls-2" d="M260,223,200.1,186.78l19.65-32.52,59.92,36.19Zm-51.68-38.22,49.64,30,13.45-22.26-49.65-30Z"/><path class="cls-1" d="M207.7,225.45a8.5,8.5,0,1,0,11.67-2.88A8.51,8.51,0,0,0,207.7,225.45Z"/><path class="cls-2" d="M215,241.35h0a11.51,11.51,0,1,1,9.85-5.56A11.55,11.55,0,0,1,215,241.35Zm0-17a5.52,5.52,0,1,0,2.83.8A5.49,5.49,0,0,0,215,224.34Z"/></svg>