<svg id="Layer_1" data-name="Layer 1" xmlns="http://www.w3.org/2000/svg" viewBox="0 0 350 350"><defs><style>.cls-1{fill:#a4c843;}.cls-2{fill:#555454;}.cls-3{fill:#fff;}.cls-4{fill:#6b882b;}</style></defs><title>fit</title><rect class="cls-1" x="55.5" y="159.25" width="15.67" height="15.67"/><path class="cls-2" d="M74.17,177.92H52.5V156.25H74.17Zm-15.67-6h9.67v-9.67H58.5Z"/><path class="cls-1" d="M63,167.25a32,32,0,0,0-32,32v32c0,4.42,14.33,8,32,8s32-3.58,32-8v-32A32,32,0,0,0,63,167.25Z"/><path class="cls-2" d="M63,242.25c-3.58,0-35-.31-35-11v-32a35,35,0,0,1,70,0v32C98,241.94,66.58,242.25,63,242.25ZM34,231c1.44,1.94,12,5.24,29,5.24S90.56,233,92,231V199.25a29,29,0,0,0-58,0Z"/><ellipse class="cls-3" cx="63" cy="231.25" rx="32" ry="8"/><path class="cls-2" d="M63,242.25c-3.58,0-35-.31-35-11s31.42-11,35-11,35,.31,35,11S66.58,242.25,63,242.25Zm-28.78-11c2.08,2,12.5,5,28.78,5s26.7-3,28.78-5c-2.08-2-12.5-5-28.78-5S36.3,229.29,34.22,231.25Z"/><rect class="cls-2" x="60" y="63.25" width="6" height="95"/><rect class="cls-4" x="279.5" y="127.25" width="15.67" height="15.67"/><path class="cls-2" d="M298.17,145.92H276.5V124.25h21.67Zm-15.67-6h9.67v-9.67H282.5Z"/><path class="cls-4" d="M287,135.25a32,32,0,0,0-32,32v32c0,4.42,14.33,8,32,8s32-3.58,32-8v-32A32,32,0,0,0,287,135.25Z"/><path class="cls-2" d="M287,210.25c-3.58,0-35-.31-35-11v-32a35,35,0,0,1,70,0v32C322,209.94,290.58,210.25,287,210.25ZM258,199c1.44,1.94,12,5.24,29,5.24s27.56-3.3,29-5.24V167.25a29,29,0,0,0-58,0Z"/><ellipse class="cls-3" cx="287" cy="199.25" rx="32" ry="8"/><path class="cls-2" d="M287,210.25c-3.58,0-35-.31-35-11s31.42-11,35-11,35,.31,35,11S290.58,210.25,287,210.25Zm-28.78-11c2.08,2,12.5,5,28.78,5s26.7-3,28.78-5c-2.08-2-12.5-5-28.78-5S260.3,197.29,258.22,199.25Z"/><rect class="cls-2" x="284" y="63.25" width="6" height="63"/><rect class="cls-4" x="167.5" y="206.75" width="15.67" height="15.67"/><path class="cls-2" d="M186.17,225.42H164.5V203.75h21.67Zm-15.67-6h9.67v-9.67H170.5Z"/><path class="cls-3" d="M175,214.75a32,32,0,0,0-32,32v32c0,4.42,14.33,8,32,8s32-3.58,32-8v-32A32,32,0,0,0,175,214.75Z"/><path class="cls-2" d="M175,289.75c-3.58,0-35-.31-35-11v-32a35,35,0,0,1,70,0v32C210,289.44,178.58,289.75,175,289.75Zm-29-11.24c1.44,1.94,12,5.24,29,5.24s27.56-3.3,29-5.24V246.75a29,29,0,0,0-58,0Z"/><ellipse class="cls-1" cx="175" cy="278.75" rx="32" ry="8"/><path class="cls-2" d="M175,289.75c-3.58,0-35-.31-35-11s31.42-11,35-11,35,.31,35,11S178.58,289.75,175,289.75Zm-28.78-11c2.08,2,12.5,5,28.78,5s26.7-3,28.78-5c-2.08-2-12.5-5-28.78-5S148.3,276.79,146.22,278.75Z"/><rect class="cls-2" x="172" y="63.25" width="6" height="142.5"/><rect class="cls-3" x="47" y="63.25" width="256" height="16"/><path class="cls-2" d="M306,82.25H44v-22H306Zm-256-6H300v-10H50Z"/></svg>