<svg id="Layer_1" data-name="Layer 1" xmlns="http://www.w3.org/2000/svg" viewBox="0 0 350 350"><defs><style>.cls-1{fill:#fff;}.cls-2{fill:#555454;}.cls-3{fill:#a4c843;}</style></defs><title>manage</title><path class="cls-1" d="M255.39,95V287h-192a32,32,0,0,1-32-32V95Z"/><path class="cls-2" d="M258.39,290h-195a35,35,0,0,1-35-35V92h230ZM34.39,98V255a29,29,0,0,0,29,29h189V98Z"/><path class="cls-3" d="M239.14,111V270.75H79.06c-39,0-47.67-29.37-47.67-46.92V111Z"/><path class="cls-2" d="M242.14,273.75H79.06c-18.25,0-32-6.09-40.87-18.1s-9.8-26.24-9.8-31.82V108H242.14ZM34.39,114V223.83c0,7.34,2.16,43.92,44.67,43.92H236.14V114Z"/><path class="cls-1" d="M31.39,255a32,32,0,0,1,32-32V63a32,32,0,0,0-32,32Z"/><path class="cls-2" d="M34.39,255h-6V95a35,35,0,0,1,35-35h3V226h-3A29,29,0,0,0,34.39,255Zm26-188.85A29.05,29.05,0,0,0,34.39,95V235.42a35,35,0,0,1,26-15.29Z"/><rect class="cls-3" x="79.39" y="63" width="159.75" height="16"/><path class="cls-2" d="M242.14,82H76.39V60H242.14ZM82.39,76H236.14V66H82.39Z"/><polygon class="cls-1" points="255.39 71 239.14 63 239.14 79 255.39 71"/><path class="cls-2" d="M239.14,82a3,3,0,0,1-3-3V63a3,3,0,0,1,4.33-2.69l16.25,8a3,3,0,0,1,0,5.38l-16.25,8A3,3,0,0,1,239.14,82Zm3-14.18v6.36L248.6,71Z"/><rect class="cls-3" x="287.39" y="63" width="16" height="32"/><path class="cls-2" d="M306.39,98h-22V60h22Zm-16-6h10V66h-10Z"/><circle class="cls-1" cx="295.39" cy="125" r="18"/><path class="cls-2" d="M295.39,146a21,21,0,1,1,21-21A21,21,0,0,1,295.39,146Zm0-36a15,15,0,1,0,15,15A15,15,0,0,0,295.39,110Z"/><path class="cls-2" d="M295.39,175.67a33.12,33.12,0,0,1-26.37-13l4.75-3.67a27.29,27.29,0,0,0,43.1.19l4.72,3.72A33.16,33.16,0,0,1,295.39,175.67Z"/><rect class="cls-2" x="292.39" y="95" width="6" height="12"/><rect class="cls-2" x="204.5" y="210.46" width="147.73" height="6" transform="translate(39.57 470.43) rotate(-84.58)"/><rect class="cls-2" x="308.65" y="139.6" width="6" height="147.73" transform="translate(-18.75 30.35) rotate(-5.41)"/><polygon class="cls-2" points="154.88 161.38 150.66 157.12 185.3 122.74 218.92 157.15 214.62 161.35 185.24 131.26 154.88 161.38"/><polygon class="cls-2" points="210.39 258.25 159.14 258.25 159.14 157.5 165.14 157.5 165.14 252.25 204.39 252.25 204.39 159.25 210.39 159.25 210.39 258.25"/><rect class="cls-2" x="121.1" y="124" width="15.17" height="6"/><rect class="cls-2" x="121.1" y="140.13" width="7.58" height="6"/><rect class="cls-2" x="121.1" y="156" width="7.58" height="6"/><rect class="cls-2" x="121.1" y="172" width="15.17" height="6"/><rect class="cls-2" x="121.1" y="188.13" width="7.58" height="6"/><rect class="cls-2" x="121.1" y="204" width="7.58" height="6"/><rect class="cls-2" x="121.1" y="220" width="15.17" height="6"/><rect class="cls-2" x="121.1" y="236.13" width="7.58" height="6"/><rect class="cls-2" x="121.1" y="252" width="7.58" height="6"/><path class="cls-2" d="M107.77,162.25h-22V124h22Zm-16-6h10V130h-10Z"/><path class="cls-2" d="M108.44,194H85.77V172h22.67Zm-16.67-6h10.67V178H91.77Z"/><path class="cls-2" d="M108.44,226H85.77V204h22.67Zm-16.67-6h10.67V210H91.77Z"/><path class="cls-2" d="M108.44,257.17H85.77v-22h22.67Zm-16.67-6h10.67v-10H91.77Z"/></svg>