<?xml version="1.0" encoding="utf-8"?>
<!-- Generator: Adobe Illustrator 22.1.0, SVG Export Plug-In . SVG Version: 6.00 Build 0)  -->
<!DOCTYPE svg PUBLIC "-//W3C//DTD SVG 1.1//EN" "http://www.w3.org/Graphics/SVG/1.1/DTD/svg11.dtd">
<svg version="1.1" id="Layer_1" xmlns="http://www.w3.org/2000/svg" xmlns:xlink="http://www.w3.org/1999/xlink" x="0px" y="0px"
	 viewBox="0 0 358.9 166" style="enable-background:new 0 0 358.9 166;" xml:space="preserve">
<style type="text/css">
	.st0{fill:#4D4B4B;}
	.st1{fill:#A2CD39;}
	.st2{fill:#FDFDFD;}
	.st3{fill:#A4CE3F;}
	.st4{fill:#514F4F;}
</style>
<g>
	<g>
		<path class="st0" d="M231.1,31.3h17v94h-17v-7.2c-3.3,3.2-6.6,5.4-10,6.8c-3.3,1.4-7,2.1-10.9,2.1c-8.8,0-16.3-3.4-22.7-10.2
			c-6.4-6.8-9.6-15.2-9.6-25.3c0-10.5,3.1-19,9.3-25.7c6.2-6.7,13.7-10,22.5-10c4.1,0,7.9,0.8,11.4,2.3c3.6,1.5,6.9,3.8,9.9,6.9
			V31.3z M213.3,71.5c-5.3,0-9.6,1.9-13.1,5.6c-3.5,3.7-5.2,8.5-5.2,14.3c0,5.9,1.8,10.7,5.3,14.5c3.5,3.8,7.9,5.7,13.1,5.7
			c5.3,0,9.8-1.9,13.3-5.6c3.5-3.7,5.3-8.6,5.3-14.6c0-5.9-1.8-10.7-5.3-14.3C223.1,73.3,218.6,71.5,213.3,71.5z"/>
		<path class="st1" d="M250,57.5h17v7.8c2.9-3.2,6.1-5.6,9.7-7.2c3.6-1.6,7.4-2.4,11.6-2.4c4.2,0,8.1,1,11.5,3.1
			c3.4,2.1,6.2,5.1,8.2,9.1c2.7-4,6-7,9.9-9.1c3.9-2.1,8.2-3.1,12.9-3.1c4.8,0,9.1,1.1,12.7,3.4c3.7,2.2,6.3,5.2,7.9,8.8
			c1.6,3.6,2.4,9.5,2.4,17.6v39.7h-17.1V90.9c0-7.7-1-12.9-2.9-15.6c-1.9-2.7-4.8-4.1-8.6-4.1c-2.9,0-5.5,0.8-7.8,2.5
			c-2.3,1.7-4,4-5.1,6.9c-1.1,2.9-1.7,7.6-1.7,14.1v30.6h-17.1V92.5c0-6.1-0.4-10.5-1.3-13.2c-0.9-2.7-2.2-4.7-4-6.1
			c-1.8-1.3-4-2-6.5-2c-2.8,0-5.4,0.8-7.7,2.5c-2.3,1.7-4,4-5.2,7.1c-1.1,3-1.7,7.8-1.7,14.3v30.2h-17V57.5z"/>
	</g>
	<g>
		<path class="st2" d="M96,14.4c-1.4,4.6,1.5,6.7,6.3,8.4c26.4,9.6,52.7,19.6,79,29.3c1.2,0.4,3.2,2.7,4,0c0.5-1.8,1.1-4.4-1.6-5.7
			c-1.1-0.5-2.1-1-3.2-1.5C154.3,33.3,128,21.6,101.7,9.9C96.1,7.4,96,7.4,96,14.4z M91.7,15.2c0-1.6-0.1-2.5,0-3.3
			c0.3-3.3-0.2-4.5-3.9-2.8C60.3,21.4,32.9,33.7,5.3,45.8c-3.4,1.5-3.6,4-2.7,6.4c1,2.4,3.2,0.3,4.6-0.3c26.3-9.8,52.6-19.8,79-29.4
			C90.4,20.9,92.8,19.1,91.7,15.2z M91.7,66.5c0-2.1-0.1-3.5,0-4.8c0.1-2.2-0.6-2.9-2.9-2.5c-23.3,4.1-46.6,8.1-69.9,12
			c-4.3,0.7-2.8,3.8-2.9,6.1c-0.2,3.3,2.2,2.1,3.8,1.9c21.9-2.2,43.7-4.4,65.6-6.6C89.8,72.3,93.5,71.6,91.7,66.5z M16.4,58.8
			c1.6-0.4,3.2-0.6,4.8-1.1C41.4,52,61.5,46.3,81.7,40.5c11-3.2,11-3.2,9.6-15.3c-1.9-0.2-3.5,0.8-5.2,1.4
			c-21.5,7.6-42.9,15.3-64.5,22.6C16.2,51,14.7,53.6,16.4,58.8z M91.7,134.1c-0.5-2.5,1.6-6.1-3.8-7.1c-22.4-4.1-44.7-8.5-67-13
			c-4.6-0.9-5.3,0.5-5,4.6c0.2,2.9,2,3,3.9,3.5c22.1,5.6,44.1,11.3,66.1,16.9C91.7,140.5,91.7,140.4,91.7,134.1z M171.6,127.3
			c0.9-4.1-1.4-3.7-4.3-2.8c-20.9,6.1-41.9,12.1-62.8,18.1c-8.8,2.6-8.7,2.6-8.5,11.6c0.1,2.9,0.8,3.4,3.4,2.5
			c23-8.2,46.1-16.4,69.2-24.5C171.1,131.4,172.1,130,171.6,127.3z M96,116c0,7.6,0,7.7,5.4,6.7c22.1-3.8,44.2-7.9,66.4-11.5
			c4.2-0.7,4.2-2.8,4-5.8c-0.3-4.3-3.4-2.3-5.2-2.1c-21.4,2.1-42.7,4.5-64.1,6.4C97.5,110.2,94.6,111.2,96,116z M53.3,93.3
			c0-0.2,0-0.3,0-0.5c-11.2,0-22.3,0.1-33.5-0.1c-3,0-3.9,0.7-4,3.9c-0.2,4.3,2.7,4.1,5.1,4.3c20.9,1.7,41.8,3.3,62.8,4.9
			c8,0.6,7.8,0.5,8.1-7.6c0.2-4.1-1.2-5.1-5-5C75.6,93.4,64.4,93.3,53.3,93.3z M149.3,89.1c0,0.2,0,0.4,0,0.6c6,0,12,0,18,0
			c2.3,0,4.6,0.5,4.6-3.3c0-3.5-1.2-4.4-4.5-4.6c-21.1-1.5-42.1-3.3-63.1-5c-8.4-0.7-8.2-0.7-8.3,7.8c0,3.4,0.9,4.6,4.5,4.6
			C116.7,89,133,89.1,149.3,89.1z M96,49.2c-0.1,2.4-0.8,5.6,4.8,6.6c22.4,3.9,44.7,8.4,67.1,12.8c2.7,0.5,3.8,0.1,3.9-3
			c0.1-3.3-1.3-4.2-4.1-4.9C145.8,55,124,49.1,102.2,43.3C96,41.6,96,41.6,96,49.2z M161.4,51.8c0.2-2.5,0-4.2-2.8-5.2
			c-19.8-6.9-39.6-13.8-59.3-20.9c-3-1.1-3.5,0.1-3.3,2.6c0.1,1.3,0.2,2.7,0,4c-0.8,4.4,1.4,5.9,5.4,7c18.6,5,37.2,10.4,55.7,15.8
			C160.8,56.1,162.2,55.4,161.4,51.8z M96,65.1c0.3,3.1-1.5,6.9,4.3,7.4c19.2,1.7,38.3,3.8,57.5,5.7c1.1,0.1,2.2,0.6,2.9-1
			c1.5-3.7-0.4-7.4-4.2-8.1c-18.2-3.1-36.3-6.1-54.5-9.4C95.7,58.6,96,58.4,96,65.1z M91.7,116.8c-1.1-2,2.4-6.2-3.3-6.7
			c-19.5-1.8-39.1-3.9-58.6-5.9c-1-0.1-2.3-0.7-3,0.8c-1.6,3.2,0.5,7.4,4,8c18.2,3.2,36.4,6.3,54.5,9.5
			C91.7,123.6,91.7,123.6,91.7,116.8z M91.7,150.6c1.6-4.8-1.6-6.5-6.3-7.5c-4.4-0.9-8.7-2.4-13-3.6c-13.9-4-27.8-8.1-41.7-12
			c-1.3-0.4-3.1-2.1-4,0.6c-1.3,3.8,0.2,7,4.2,8.4c19,6.7,38,13.3,56.9,20.1c2.8,1,4.4,1.1,3.9-2.6
			C91.6,153.1,91.7,152.2,91.7,150.6z M129.2,92.8c0,0.1,0,0.3,0,0.4c-8.1,0-16.3,0-24.4,0c-10.1,0.1-8.4-1-8.8,8.8
			c-0.1,3.8,1.3,4.5,4.7,4.1c4.9-0.6,9.9-0.8,14.9-1.2c14.1-1.2,28.1-2.5,42.2-3.5c4.3-0.3,3.4-3,3.6-5.5c0.3-3.5-2-3.1-4.2-3.1
			C147.8,92.8,138.5,92.8,129.2,92.8z M59.1,89.6c0-0.2,0-0.4,0-0.5c7.8,0,15.7,0,23.5,0c9.3,0,9.2,0,9.2-9.2c0-3.1-0.8-3.9-4-3.7
			c-19.1,1.7-38.2,3.3-57.3,4.6c-3.9,0.3-3.9,2.2-4,5.1c-0.2,3.3,1.3,3.8,4.1,3.8C40.1,89.6,49.6,89.6,59.1,89.6z M91.7,49.2
			c0-2-0.1-3.1,0-4.3c0.2-2.5-0.6-3.1-3.2-2.4C68.8,47.8,49,53,29.2,58.2c-4.6,1.2-2.6,4.9-2.4,7.4c0.2,2.7,2.6,1,3.9,0.7
			C49,62.9,67.3,59.3,85.6,56C90.2,55.1,93.3,53.9,91.7,49.2z M96.5,134.6c0.9,1-3.4,6.6,3.4,4.9c19.3-4.9,38.6-9.9,58-14.8
			c4.9-1.2,3.1-5,2.9-7.6c-0.3-3.5-3.3-1.2-4.7-0.9c-18.1,3.4-36.2,7.2-54.3,10.5C97.2,127.5,94.9,128.9,96.5,134.6z"/>
		<path class="st3" d="M96,14.4c0-7,0-7,5.6-4.5C128,21.6,154.3,33.3,180.6,45c1.1,0.5,2.1,1,3.2,1.5c2.7,1.3,2.1,3.9,1.6,5.7
			c-0.8,2.7-2.7,0.5-4,0c-26.3-9.8-52.6-19.7-79-29.3C97.6,21.1,94.7,19.1,96,14.4z"/>
		<path class="st4" d="M91.7,15.2c1.2,4-1.2,5.7-5.5,7.3c-26.4,9.6-52.7,19.6-79,29.4c-1.4,0.5-3.6,2.7-4.6,0.3
			c-0.9-2.3-0.7-4.9,2.7-6.4c27.6-12.1,55-24.3,82.5-36.7c3.7-1.7,4.2-0.4,3.9,2.8C91.6,12.7,91.7,13.6,91.7,15.2z"/>
		<path class="st4" d="M91.7,66.5c1.9,5.1-1.8,5.8-6.3,6.2c-21.9,2.1-43.7,4.4-65.6,6.6c-1.6,0.2-4,1.4-3.8-1.9
			c0.1-2.4-1.4-5.4,2.9-6.1c23.3-3.9,46.6-7.9,69.9-12c2.3-0.4,3.1,0.3,2.9,2.5C91.6,63,91.7,64.4,91.7,66.5z"/>
		<path class="st4" d="M16.4,58.8c-1.7-5.2-0.2-7.8,5.1-9.6c21.6-7.3,43-15,64.5-22.6c1.7-0.6,3.3-1.6,5.2-1.4
			c1.4,12.1,1.5,12.2-9.6,15.3C61.5,46.3,41.4,52,21.2,57.7C19.6,58.1,18,58.4,16.4,58.8z"/>
		<path class="st4" d="M91.7,134.1c0,6.4,0,6.4-5.8,4.9c-22.1-5.6-44.1-11.3-66.1-16.9c-1.9-0.5-3.7-0.6-3.9-3.5
			c-0.3-4,0.5-5.5,5-4.6c22.3,4.5,44.6,8.9,67,13C93.3,128,91.2,131.6,91.7,134.1z"/>
		<path class="st3" d="M171.6,127.3c0.5,2.8-0.5,4.1-3,5c-23.1,8.1-46.1,16.2-69.2,24.5c-2.7,1-3.4,0.4-3.4-2.5
			c-0.2-9.1-0.3-9.1,8.5-11.6c20.9-6,41.9-12,62.8-18.1C170.2,123.6,172.5,123.2,171.6,127.3z"/>
		<path class="st3" d="M96,116c-1.4-4.8,1.4-5.7,6.4-6.2c21.4-1.9,42.7-4.3,64.1-6.4c1.8-0.2,5-2.2,5.2,2.1c0.2,3,0.2,5.1-4,5.8
			c-22.2,3.6-44.3,7.6-66.4,11.5C96.1,123.6,96,123.5,96,116z"/>
		<path class="st4" d="M53.3,93.3c11.2,0,22.3,0.1,33.5-0.1c3.8-0.1,5.2,0.9,5,5c-0.3,8.1-0.1,8.2-8.1,7.6
			c-20.9-1.6-41.8-3.2-62.8-4.9c-2.4-0.2-5.4,0-5.1-4.3c0.2-3.1,1-3.9,4-3.9c11.2,0.2,22.3,0.1,33.5,0.1
			C53.3,92.9,53.3,93.1,53.3,93.3z"/>
		<path class="st3" d="M149.3,89.1c-16.3,0-32.6-0.1-48.9,0.1c-3.6,0-4.5-1.1-4.5-4.6c0.1-8.5-0.1-8.5,8.3-7.8
			c21,1.7,42.1,3.5,63.1,5c3.4,0.2,4.6,1.1,4.5,4.6c0,3.8-2.3,3.3-4.6,3.3c-6,0-12,0-18,0C149.3,89.5,149.3,89.3,149.3,89.1z"/>
		<path class="st3" d="M96,49.2c0-7.6,0-7.6,6.1-5.9c21.8,5.8,43.7,11.7,65.5,17.4c2.8,0.7,4.2,1.7,4.1,4.9c-0.1,3.1-1.2,3.6-3.9,3
			c-22.3-4.4-44.6-8.9-67.1-12.8C95.2,54.8,95.9,51.6,96,49.2z"/>
		<path class="st3" d="M161.4,51.8c0.7,3.7-0.6,4.4-4.3,3.3c-18.5-5.4-37.1-10.7-55.7-15.8c-4-1.1-6.2-2.5-5.4-7
			c0.2-1.3,0.1-2.7,0-4c-0.2-2.6,0.3-3.7,3.3-2.6c19.7,7.1,39.5,14,59.3,20.9C161.4,47.5,161.7,49.3,161.4,51.8z"/>
		<path class="st3" d="M96,65.1c-0.1-6.7-0.3-6.5,6-5.3c18.1,3.3,36.3,6.3,54.5,9.4c3.8,0.7,5.6,4.4,4.2,8.1c-0.6,1.6-1.8,1.1-2.9,1
			c-19.2-1.9-38.3-4.1-57.5-5.7C94.5,72,96.3,68.2,96,65.1z"/>
		<path class="st4" d="M91.7,116.8c0,6.8,0,6.8-6.4,5.7c-18.2-3.2-36.4-6.3-54.5-9.5c-3.5-0.6-5.6-4.9-4-8c0.8-1.5,2-0.9,3-0.8
			c19.5,2,39,4,58.6,5.9C94,110.6,90.6,114.8,91.7,116.8z"/>
		<path class="st4" d="M91.7,150.6c0,1.6-0.1,2.5,0,3.3c0.5,3.7-1.1,3.6-3.9,2.6c-19-6.8-38-13.4-56.9-20.1
			c-3.9-1.4-5.5-4.5-4.2-8.4c0.9-2.7,2.8-0.9,4-0.6c13.9,3.9,27.8,8,41.7,12c4.3,1.2,8.6,2.7,13,3.6
			C90.1,144.1,93.3,145.8,91.7,150.6z"/>
		<path class="st3" d="M129.2,92.8c9.3,0,18.6,0,27.9,0c2.2,0,4.5-0.4,4.2,3.1c-0.2,2.6,0.7,5.2-3.6,5.5c-14.1,1-28.1,2.3-42.2,3.5
			c-5,0.4-10,0.6-14.9,1.2c-3.3,0.4-4.8-0.3-4.7-4.1c0.4-9.8-1.4-8.7,8.8-8.8c8.1-0.1,16.3,0,24.4,0
			C129.2,93.1,129.2,92.9,129.2,92.8z"/>
		<path class="st4" d="M59.1,89.6c-9.5,0-19-0.1-28.5,0.1c-2.8,0-4.3-0.4-4.1-3.8c0.1-2.9,0.1-4.8,4-5.1c19.1-1.3,38.2-2.9,57.3-4.6
			c3.2-0.3,3.9,0.6,4,3.7c0,9.2,0.2,9.2-9.2,9.2c-7.8,0-15.7,0-23.5,0C59.1,89.3,59.1,89.5,59.1,89.6z"/>
		<path class="st4" d="M91.7,49.2c1.6,4.7-1.4,5.9-6.1,6.7c-18.3,3.3-36.6,7-54.9,10.4c-1.3,0.2-3.7,1.9-3.9-0.7
			c-0.2-2.5-2.2-6.2,2.4-7.4C49,53,68.8,47.8,88.5,42.5c2.5-0.7,3.4-0.2,3.2,2.4C91.6,46.1,91.7,47.2,91.7,49.2z"/>
		<path class="st3" d="M96.5,134.6c-1.6-5.7,0.7-7.1,5.2-7.9c18.1-3.3,36.2-7.1,54.3-10.5c1.4-0.3,4.4-2.6,4.7,0.9
			c0.2,2.6,2.1,6.4-2.9,7.6c-19.3,4.8-38.6,9.9-58,14.8C93.1,141.3,97.4,135.6,96.5,134.6z"/>
	</g>
	<g>
		<path class="st4" d="M184.3,142.2l-0.7,0.7c-0.6-0.6-1.2-0.9-1.7-0.9c-0.4,0-0.7,0.1-0.9,0.4c-0.3,0.2-0.4,0.5-0.4,0.8
			c0,0.3,0.1,0.5,0.3,0.8c0.2,0.3,0.7,0.6,1.3,0.9c0.8,0.4,1.4,0.8,1.7,1.2c0.3,0.4,0.4,0.9,0.4,1.4c0,0.7-0.2,1.3-0.7,1.8
			c-0.5,0.5-1.1,0.7-1.9,0.7c-0.5,0-1-0.1-1.4-0.3c-0.5-0.2-0.8-0.5-1.1-0.9l0.7-0.8c0.6,0.6,1.2,1,1.8,1c0.4,0,0.8-0.1,1.1-0.4
			s0.5-0.6,0.5-1c0-0.3-0.1-0.6-0.3-0.8c-0.2-0.2-0.7-0.5-1.4-0.9c-0.8-0.4-1.3-0.8-1.6-1.2c-0.3-0.4-0.4-0.8-0.4-1.3
			c0-0.7,0.2-1.2,0.7-1.6c0.4-0.4,1-0.6,1.7-0.6C182.7,141,183.5,141.4,184.3,142.2z"/>
		<path class="st4" d="M186.3,141.2h1.1v1.6c0.4-0.6,0.9-1.1,1.5-1.4c0.6-0.3,1.2-0.5,1.9-0.5c1.2,0,2.3,0.4,3.1,1.3
			c0.9,0.9,1.3,1.9,1.3,3.2c0,1.3-0.4,2.3-1.3,3.2c-0.9,0.9-1.9,1.3-3.1,1.3c-0.7,0-1.3-0.1-1.9-0.4s-1.1-0.7-1.6-1.3v4.6h-1.1
			V141.2z M190.7,142.1c-1,0-1.8,0.3-2.4,1s-1,1.5-1,2.5c0,0.7,0.1,1.2,0.4,1.8c0.3,0.5,0.7,0.9,1.3,1.2c0.5,0.3,1.1,0.5,1.7,0.5
			c0.6,0,1.2-0.2,1.7-0.5c0.5-0.3,0.9-0.7,1.3-1.3s0.5-1.1,0.5-1.7c0-0.6-0.2-1.2-0.5-1.7c-0.3-0.5-0.7-1-1.2-1.3
			S191.4,142.1,190.7,142.1z"/>
		<path class="st4" d="M204.6,147l0.9,0.5c-0.3,0.6-0.7,1.1-1.1,1.5c-0.4,0.4-0.9,0.7-1.4,0.8s-1.1,0.3-1.7,0.3
			c-1.4,0-2.5-0.5-3.3-1.4c-0.8-0.9-1.2-2-1.2-3.1c0-1.1,0.3-2.1,1-2.9c0.9-1.1,2-1.6,3.4-1.6c1.5,0,2.6,0.6,3.5,1.7
			c0.6,0.8,0.9,1.8,1,2.9h-7.8c0,1,0.3,1.8,1,2.5c0.6,0.6,1.4,1,2.3,1c0.4,0,0.9-0.1,1.3-0.2c0.4-0.2,0.8-0.4,1.1-0.6
			C204,148,204.3,147.6,204.6,147z M204.6,144.7c-0.1-0.6-0.4-1.1-0.6-1.4c-0.3-0.4-0.7-0.6-1.1-0.9c-0.5-0.2-1-0.3-1.5-0.3
			c-0.8,0-1.6,0.3-2.2,0.8c-0.4,0.4-0.8,1-1,1.8H204.6z"/>
		<path class="st4" d="M216.3,143l-0.9,0.5c-0.8-1-1.8-1.5-3.1-1.5c-1,0-1.9,0.3-2.6,1c-0.7,0.7-1,1.5-1,2.5c0,0.6,0.2,1.2,0.5,1.8
			s0.8,1,1.3,1.3c0.6,0.3,1.2,0.5,1.9,0.5c1.3,0,2.3-0.5,3.1-1.5l0.9,0.6c-0.4,0.6-1,1.1-1.7,1.4c-0.7,0.3-1.5,0.5-2.4,0.5
			c-1.4,0-2.5-0.4-3.4-1.3s-1.3-1.9-1.3-3.2c0-0.8,0.2-1.6,0.6-2.3c0.4-0.7,1-1.3,1.7-1.7c0.7-0.4,1.6-0.6,2.5-0.6
			c0.6,0,1.1,0.1,1.7,0.3c0.5,0.2,1,0.4,1.3,0.7C215.7,142.2,216,142.6,216.3,143z"/>
		<path class="st4" d="M218.8,137.7c0.3,0,0.5,0.1,0.6,0.3c0.2,0.2,0.3,0.4,0.3,0.6c0,0.2-0.1,0.5-0.3,0.6c-0.2,0.2-0.4,0.3-0.6,0.3
			c-0.2,0-0.5-0.1-0.6-0.3c-0.2-0.2-0.3-0.4-0.3-0.6c0-0.3,0.1-0.5,0.3-0.6C218.3,137.8,218.5,137.7,218.8,137.7z M218.2,141.2h1.1
			v8.6h-1.1V141.2z"/>
		<path class="st4" d="M230.2,141.2v8.6h-1.1v-1.5c-0.5,0.6-1,1-1.6,1.3s-1.2,0.4-1.9,0.4c-1.2,0-2.3-0.4-3.1-1.3
			c-0.9-0.9-1.3-2-1.3-3.2c0-1.2,0.4-2.3,1.3-3.2c0.9-0.9,1.9-1.3,3.1-1.3c0.7,0,1.3,0.2,1.9,0.5c0.6,0.3,1.1,0.8,1.5,1.4v-1.6
			H230.2z M225.8,142.1c-0.6,0-1.2,0.2-1.7,0.5c-0.5,0.3-0.9,0.7-1.2,1.3c-0.3,0.5-0.5,1.1-0.5,1.7c0,0.6,0.2,1.2,0.5,1.7
			c0.3,0.6,0.7,1,1.3,1.3c0.5,0.3,1.1,0.5,1.7,0.5c0.6,0,1.2-0.2,1.7-0.5c0.5-0.3,1-0.7,1.3-1.2c0.3-0.5,0.4-1.1,0.4-1.8
			c0-1-0.3-1.8-1-2.5C227.6,142.4,226.8,142.1,225.8,142.1z"/>
		<path class="st4" d="M232.6,137.9h1.1v11.9h-1.1V137.9z"/>
		<path class="st4" d="M236.4,137.7c0.3,0,0.5,0.1,0.6,0.3c0.2,0.2,0.3,0.4,0.3,0.6c0,0.2-0.1,0.5-0.3,0.6c-0.2,0.2-0.4,0.3-0.6,0.3
			c-0.2,0-0.5-0.1-0.6-0.3c-0.2-0.2-0.3-0.4-0.3-0.6c0-0.3,0.1-0.5,0.3-0.6C235.9,137.8,236.1,137.7,236.4,137.7z M235.8,141.2h1.1
			v8.6h-1.1V141.2z"/>
		<path class="st4" d="M243.6,142.2l-0.7,0.7c-0.6-0.6-1.2-0.9-1.7-0.9c-0.4,0-0.7,0.1-0.9,0.4c-0.3,0.2-0.4,0.5-0.4,0.8
			c0,0.3,0.1,0.5,0.3,0.8c0.2,0.3,0.7,0.6,1.3,0.9c0.8,0.4,1.4,0.8,1.7,1.2c0.3,0.4,0.4,0.9,0.4,1.4c0,0.7-0.2,1.3-0.7,1.8
			c-0.5,0.5-1.1,0.7-1.9,0.7c-0.5,0-1-0.1-1.4-0.3c-0.5-0.2-0.8-0.5-1.1-0.9l0.7-0.8c0.6,0.6,1.2,1,1.8,1c0.4,0,0.8-0.1,1.1-0.4
			c0.3-0.3,0.5-0.6,0.5-1c0-0.3-0.1-0.6-0.3-0.8c-0.2-0.2-0.7-0.5-1.4-0.9c-0.8-0.4-1.3-0.8-1.6-1.2c-0.3-0.4-0.4-0.8-0.4-1.3
			c0-0.7,0.2-1.2,0.7-1.6s1-0.6,1.7-0.6C241.9,141,242.7,141.4,243.6,142.2z"/>
		<path class="st4" d="M246.5,138h1.1v3.2h1.8v1h-1.8v7.7h-1.1v-7.7H245v-1h1.5V138z"/>
		<path class="st4" d="M255.9,137.7c0.3,0,0.5,0.1,0.6,0.3c0.2,0.2,0.3,0.4,0.3,0.6c0,0.2-0.1,0.5-0.3,0.6c-0.2,0.2-0.4,0.3-0.6,0.3
			c-0.2,0-0.5-0.1-0.6-0.3c-0.2-0.2-0.3-0.4-0.3-0.6c0-0.3,0.1-0.5,0.3-0.6C255.4,137.8,255.6,137.7,255.9,137.7z M255.3,141.2h1.1
			v8.6h-1.1V141.2z"/>
		<path class="st4" d="M258.8,141.2h1.1v1.5c0.4-0.6,0.9-1,1.5-1.3c0.5-0.3,1.1-0.4,1.8-0.4c0.6,0,1.2,0.2,1.7,0.5
			c0.5,0.3,0.9,0.8,1.1,1.3c0.2,0.6,0.4,1.4,0.4,2.6v4.4h-1.1v-4.1c0-1,0-1.7-0.1-2c-0.1-0.6-0.4-1-0.7-1.3
			c-0.4-0.3-0.8-0.4-1.4-0.4c-0.7,0-1.3,0.2-1.8,0.7c-0.5,0.4-0.9,1-1,1.6c-0.1,0.4-0.2,1.2-0.2,2.3v3.2h-1.1V141.2z"/>
		<path class="st4" d="M269.6,138h1.1v3.2h1.8v1h-1.8v7.7h-1.1v-7.7h-1.5v-1h1.5V138z"/>
		<path class="st4" d="M281.4,147l0.9,0.5c-0.3,0.6-0.7,1.1-1.1,1.5c-0.4,0.4-0.9,0.7-1.4,0.8s-1.1,0.3-1.7,0.3
			c-1.4,0-2.5-0.5-3.3-1.4c-0.8-0.9-1.2-2-1.2-3.1c0-1.1,0.3-2.1,1-2.9c0.9-1.1,2-1.6,3.4-1.6c1.5,0,2.6,0.6,3.5,1.7
			c0.6,0.8,0.9,1.8,1,2.9h-7.8c0,1,0.3,1.8,1,2.5c0.6,0.6,1.4,1,2.3,1c0.4,0,0.9-0.1,1.3-0.2c0.4-0.2,0.8-0.4,1.1-0.6
			C280.7,148,281.1,147.6,281.4,147z M281.4,144.7c-0.1-0.6-0.4-1.1-0.6-1.4c-0.3-0.4-0.7-0.6-1.1-0.9c-0.5-0.2-1-0.3-1.5-0.3
			c-0.8,0-1.6,0.3-2.2,0.8c-0.4,0.4-0.8,1-1,1.8H281.4z"/>
		<path class="st4" d="M284.3,141.2h1.1v1.3c0.3-0.5,0.7-0.9,1.1-1.1s0.8-0.4,1.2-0.4c0.3,0,0.6,0.1,1,0.3l-0.6,0.9
			c-0.2-0.1-0.4-0.2-0.6-0.2c-0.4,0-0.7,0.2-1.1,0.5c-0.3,0.3-0.6,0.8-0.8,1.4c-0.1,0.5-0.2,1.5-0.2,3v2.9h-1.1V141.2z"/>
		<path class="st4" d="M289.9,137.7c0.3,0,0.5,0.1,0.6,0.3c0.2,0.2,0.3,0.4,0.3,0.6c0,0.2-0.1,0.5-0.3,0.6c-0.2,0.2-0.4,0.3-0.6,0.3
			c-0.2,0-0.5-0.1-0.6-0.3c-0.2-0.2-0.3-0.4-0.3-0.6c0-0.3,0.1-0.5,0.3-0.6C289.5,137.8,289.7,137.7,289.9,137.7z M289.4,141.2h1.1
			v8.6h-1.1V141.2z"/>
		<path class="st4" d="M296.9,141c1.3,0,2.4,0.5,3.3,1.4c0.8,0.9,1.2,1.9,1.2,3.1c0,1.2-0.4,2.3-1.3,3.2c-0.8,0.9-1.9,1.4-3.2,1.4
			c-1.3,0-2.4-0.5-3.2-1.4c-0.8-0.9-1.3-2-1.3-3.2c0-1.2,0.4-2.2,1.2-3.1C294.5,141.5,295.6,141,296.9,141z M296.9,142.1
			c-0.9,0-1.7,0.3-2.4,1c-0.7,0.7-1,1.5-1,2.5c0,0.6,0.2,1.2,0.5,1.7s0.7,1,1.2,1.2c0.5,0.3,1.1,0.4,1.7,0.4c0.6,0,1.2-0.1,1.7-0.4
			c0.5-0.3,0.9-0.7,1.2-1.2c0.3-0.5,0.5-1.1,0.5-1.7c0-1-0.3-1.8-1-2.5S297.8,142.1,296.9,142.1z"/>
		<path class="st4" d="M303,141.2h1.1v1.3c0.3-0.5,0.7-0.9,1.1-1.1s0.8-0.4,1.2-0.4c0.3,0,0.6,0.1,1,0.3l-0.6,0.9
			c-0.2-0.1-0.4-0.2-0.6-0.2c-0.4,0-0.7,0.2-1.1,0.5c-0.3,0.3-0.6,0.8-0.8,1.4c-0.1,0.5-0.2,1.5-0.2,3v2.9H303V141.2z"/>
		<path class="st4" d="M316.3,137.9v1.1c-0.4-0.2-0.8-0.3-1-0.3c-0.2,0-0.4,0-0.5,0.1c-0.1,0.1-0.2,0.2-0.3,0.3
			c0,0.1-0.1,0.4-0.1,0.9l0,1.2h1.8v1h-1.8l0,7.7h-1.1v-7.7h-1.1v-1h1.1v-1.3c0-0.6,0.1-1.1,0.2-1.3c0.1-0.3,0.3-0.5,0.6-0.6
			c0.3-0.2,0.6-0.2,1-0.2C315.4,137.7,315.8,137.8,316.3,137.9z"/>
		<path class="st4" d="M318.3,137.7c0.3,0,0.5,0.1,0.6,0.3c0.2,0.2,0.3,0.4,0.3,0.6c0,0.2-0.1,0.5-0.3,0.6c-0.2,0.2-0.4,0.3-0.6,0.3
			c-0.2,0-0.5-0.1-0.6-0.3c-0.2-0.2-0.3-0.4-0.3-0.6c0-0.3,0.1-0.5,0.3-0.6C317.8,137.8,318,137.7,318.3,137.7z M317.7,141.2h1.1
			v8.6h-1.1V141.2z"/>
		<path class="st4" d="M322.1,138h1.1v3.2h1.8v1h-1.8v7.7h-1.1v-7.7h-1.5v-1h1.5V138z"/>
		<path class="st4" d="M325.9,145h4.4v1h-4.4V145z"/>
		<path class="st4" d="M336.1,141c1.3,0,2.4,0.5,3.3,1.4c0.8,0.9,1.2,1.9,1.2,3.1c0,1.2-0.4,2.3-1.3,3.2c-0.8,0.9-1.9,1.4-3.2,1.4
			c-1.3,0-2.4-0.5-3.2-1.4c-0.8-0.9-1.3-2-1.3-3.2c0-1.2,0.4-2.2,1.2-3.1C333.7,141.5,334.8,141,336.1,141z M336.1,142.1
			c-0.9,0-1.7,0.3-2.4,1s-1,1.5-1,2.5c0,0.6,0.2,1.2,0.5,1.7c0.3,0.5,0.7,1,1.2,1.2s1.1,0.4,1.7,0.4c0.6,0,1.2-0.1,1.7-0.4
			c0.5-0.3,0.9-0.7,1.2-1.2c0.3-0.5,0.5-1.1,0.5-1.7c0-1-0.3-1.8-1-2.5S337,142.1,336.1,142.1z"/>
		<path class="st4" d="M342.5,141.2h1.1v4c0,1,0.1,1.7,0.2,2c0.2,0.5,0.5,0.9,0.9,1.3c0.4,0.3,1,0.5,1.6,0.5c0.6,0,1.1-0.1,1.6-0.4
			c0.4-0.3,0.7-0.7,0.9-1.2c0.1-0.3,0.2-1,0.2-2.1v-4h1.1v4.2c0,1.2-0.1,2.1-0.4,2.7c-0.3,0.6-0.7,1.1-1.3,1.4
			c-0.6,0.3-1.3,0.5-2.1,0.5c-0.8,0-1.5-0.2-2.1-0.5c-0.6-0.3-1-0.8-1.3-1.4c-0.3-0.6-0.4-1.5-0.4-2.8V141.2z"/>
		<path class="st4" d="M353.5,138h1.1v3.2h1.8v1h-1.8v7.7h-1.1v-7.7H352v-1h1.5V138z"/>
	</g>
</g>
</svg>
